<svg xmlns="http://www.w3.org/2000/svg" width="600" height="400" viewBox="0 0 600 400"><rect width="100%" height="100%" fill="#DDDDDD"/><path fill="#999999" d="m267.95 151.2-6.5-10.3q3.4-3 7.45-5.7 4.05-2.7 8.75-4.7t10.2-3.15q5.5-1.15 11.9-1.15 8.7 0 15.85 2.4t12.25 6.85q5.1 4.45 7.9 10.75 2.8 6.3 2.8 14.1 0 7.6-2.2 13.15-2.2 5.55-5.5 9.65-3.3 4.1-7.25 7.1t-7.45 5.65q-3.5 2.65-6.05 5.2-2.55 2.55-3.05 5.75l-2.3 14.6h-16.9l-1.7-16.3q-.6-4.7 1.35-8.25 1.95-3.55 5.2-6.5t7.25-5.7q4-2.75 7.5-6t5.85-7.3q2.35-4.05 2.35-9.65 0-3.6-1.35-6.45t-3.75-4.9q-2.4-2.05-5.75-3.15t-7.25-1.1q-5.7 0-9.65 1.25t-6.7 2.8q-2.75 1.55-4.65 2.8-1.9 1.25-3.4 1.25-3.6 0-5.2-3Zm12.4 107.6q0-3.1 1.15-5.9 1.15-2.8 3.15-4.8t4.8-3.2q2.8-1.2 6-1.2t5.95 1.2q2.75 1.2 4.8 3.2t3.25 4.8q1.2 2.8 1.2 5.9 0 3.2-1.2 5.95t-3.25 4.75q-2.05 2-4.8 3.15t-5.95 1.15q-3.2 0-6-1.15t-4.8-3.15q-2-2-3.15-4.75t-1.15-5.95Z"/></svg>